<svg width="64" height="64" viewBox="0 0 64 64" fill="none" xmlns="http://www.w3.org/2000/svg">
<path d="M18.3517 47.1516C18.8204 46.683 19.58 46.683 20.0486 47.1516C20.5171 47.6203 20.5171 48.3799 20.0486 48.8485L13.6486 55.2485C13.18 55.717 12.4203 55.717 11.9517 55.2485C11.4831 54.7799 11.4832 54.0203 11.9517 53.5516L18.3517 47.1516Z" fill="white"/>
<path d="M31.1517 47.1516C31.6203 46.683 32.38 46.683 32.8486 47.1516C33.3171 47.6203 33.3171 48.3799 32.8486 48.8485L26.4486 55.2485C25.98 55.717 25.2203 55.717 24.7517 55.2485C24.2831 54.7799 24.2832 54.0203 24.7517 53.5516L31.1517 47.1516Z" fill="white"/>
<path d="M43.9517 47.1516C44.4203 46.683 45.18 46.683 45.6486 47.1516C46.1171 47.6203 46.1171 48.3799 45.6486 48.8485L39.2486 55.2485C38.78 55.717 38.0203 55.717 37.5517 55.2485C37.0831 54.7799 37.0832 54.0203 37.5517 53.5516L43.9517 47.1516Z" fill="white"/>
<path d="M32 3.20001C39.7417 3.20001 46.1984 8.6985 47.6797 16.0031C47.7861 16.0005 47.8929 16 48 16C55.0692 16 60.8 21.7308 60.8 28.8C60.8 35.8693 55.0692 41.6 48 41.6H16C8.93075 41.6 3.2 35.8693 3.2 28.8C3.2 21.7308 8.93075 16 16 16C16.1068 16 16.2133 16.0005 16.3195 16.0031C17.8008 8.69842 24.2582 3.20001 32 3.20001Z" fill="#DFDFDF"/>
</svg>
